<svg width="512" height="512" viewBox="0 0 512 512" fill="none" xmlns="http://www.w3.org/2000/svg">
<g clip-path="url(#clip0_213_2)">
<path d="M146.751 276.298C146.548 277.103 146.594 278.727 146.594 278.727V326.214C146.594 326.214 146.68 327.399 146.116 327.964C145.559 328.52 144.234 328.607 144.234 328.607H125.442C125.442 328.607 124.324 328.457 123.828 327.961C123.236 327.369 123.339 326.094 123.339 326.094V278.668C123.339 278.668 123.282 277.097 123.1 276.374C122.91 275.618 122.23 274.373 122.23 274.373L78.5734 193.228C78.5734 193.228 78.0376 192.401 78.3798 191.829C78.7101 191.276 79.5565 191.465 79.5565 191.465H100.839C100.839 191.465 102.125 191.519 102.728 191.892C103.225 192.198 103.75 193.031 103.75 193.031L134.743 255.017C134.743 255.017 134.939 255.63 135.477 255.63C135.995 255.631 136.163 255.069 136.163 255.069L167.26 193.252C167.26 193.252 167.873 192.177 168.441 191.827C169.087 191.428 170.438 191.465 170.438 191.465H189.764C189.764 191.465 190.898 191.28 191.333 192.009C191.754 192.714 191.138 193.634 191.138 193.634L147.79 274.016C147.79 274.016 146.957 275.483 146.751 276.298ZM294.362 192.53C295.45 193.724 295.533 195.477 295.533 195.477V281.602C295.533 290.413 293.844 298.595 290.465 306.148C287.086 313.634 281.72 319.697 274.366 324.334C267.078 328.906 257.471 331.191 245.546 331.191C237.994 331.191 231.003 330.098 224.577 327.911C218.939 325.994 213.607 323.362 208.581 320.015C207.878 319.548 207.556 319.157 207.39 318.326C207.226 317.506 207.846 316.457 207.846 316.457L214.522 306.058C214.522 306.058 215.25 305.07 216.098 304.88C216.969 304.685 217.454 304.83 218.202 305.282C222.765 308.034 227.01 309.978 230.937 311.117C235.575 312.375 240.147 313.005 244.652 313.005C253.265 313.005 260.055 310.256 265.025 304.757C270.06 299.258 272.578 291.374 272.578 281.104V212.002C272.578 212.002 272.561 210.448 271.89 209.777C271.138 209.026 269.389 209.154 269.389 209.154H233.862C233.862 209.154 232.66 209.164 231.901 208.282C231.216 207.487 231.335 206.303 231.335 206.303V194.313C231.335 194.313 231.257 193.361 232.15 192.37C232.909 191.529 234.01 191.465 234.01 191.465H291.336C291.336 191.465 293.115 191.161 294.362 192.53Z" class="dynamic"/>
<path d="M333.698 312.011C333.698 306.711 335.521 302.206 339.164 298.496C342.874 294.72 347.446 292.831 352.879 292.831C358.311 292.831 362.883 294.72 366.594 298.496C370.304 302.206 372.158 306.711 372.158 312.011C372.158 317.311 370.304 321.85 366.594 325.626C362.883 329.403 358.311 331.29 352.879 331.29C347.446 331.29 342.874 329.403 339.164 325.626C335.521 321.85 333.698 317.311 333.698 312.011Z" class="dynamic"/>
<path fill-rule="evenodd" clip-rule="evenodd" d="M373.039 360.278L447.223 261.959C449.884 258.432 449.884 253.568 447.223 250.041L373.039 151.722C371.169 149.244 368.245 147.787 365.141 147.787H64.6812C59.217 147.787 54.7875 152.217 54.7875 157.681V354.319C54.7875 359.783 59.217 364.213 64.6812 364.213H365.141C368.245 364.213 371.169 362.756 373.039 360.278ZM463.019 273.878C471.002 263.296 471.002 248.704 463.019 238.122L388.835 139.804C383.226 132.37 374.453 128 365.141 128L64.6812 128C48.2888 128 35 141.289 35 157.681V354.319C35 370.711 48.2888 384 64.6812 384H365.141C374.453 384 383.226 379.63 388.835 372.196L463.019 273.878Z" class="dynamic"/>
</g>
<defs>
<clipPath id="clip0_213_2">
<rect width="440" height="256" class="dynamic" transform="translate(35 128)"/>
</clipPath>
</defs>
    <style>
        path.dynamic { fill: #000000; }@media (prefers-color-scheme: dark) {path.dynamic { fill: #FFFFFF; }}
    </style>
</svg>
